<svg xmlns="http://www.w3.org/2000/svg" width="65" height="65" viewBox="0 0 65 65"><g transform="translate(-0.068)"><circle cx="32.5" cy="32.5" r="32.5" transform="translate(0.068)" fill="#f1592a" opacity="0.1"/><g transform="translate(12.441 13.441)"><path d="M25.677,12.354H31.1A.677.677,0,1,0,31.1,11H25.677a.677.677,0,1,0,0,1.354Z" transform="translate(-9.423 -4.9)" fill="#f1592a"/><path d="M7.572,29.75a1.227,1.227,0,1,0-1.841,1.623l4.225,4.754a.677.677,0,1,1-1.013.9L4.719,32.273a2.574,2.574,0,0,1,.558-3.9L4.75,21.992A1.025,1.025,0,0,0,3.877,21a.668.668,0,0,0-.09,0,.958.958,0,0,0-.964.887L2.007,32.175A2.02,2.02,0,0,0,2.445,33.6l6.937,8.577a3.4,3.4,0,0,1,.745,2.116v1.761h5.418V39.881a2.713,2.713,0,0,0-.67-1.785Z" transform="translate(-2 -8.128)" fill="#f1592a"/><path d="M26.287,6.739h4.2a11.133,11.133,0,0,0,1.188-1.861,1.094,1.094,0,0,0-.084-1.051.942.942,0,0,0-.775-.474.677.677,0,0,1-.618-.4,2.194,2.194,0,0,0-3.625.008.692.692,0,0,1-.614.392.941.941,0,0,0-.775.474A1.094,1.094,0,0,0,25.1,4.881a11.133,11.133,0,0,0,1.189,1.858Z" transform="translate(-9.424 -1.994)" fill="#f1592a"/><path d="M35.51,28.863a8.269,8.269,0,0,0,.162-1.672c0-4.206-4.531-10.872-8.257-12.19H22.281C18.009,16.9,14,22.784,14,27.19a8.269,8.269,0,0,0,.162,1.672l3.589,4.1a19.643,19.643,0,0,0,7.085,1,19.623,19.623,0,0,0,7.083-1ZM24.836,24.481a2.7,2.7,0,0,1,.677,5.322v.773a.677.677,0,0,1-1.354,0V29.8a2.709,2.709,0,0,1-2.032-2.613.677.677,0,1,1,1.354,0,1.354,1.354,0,1,0,1.355-1.354,2.7,2.7,0,0,1-.677-5.322v-.773a.677.677,0,1,1,1.354,0v.773a2.709,2.709,0,0,1,2.032,2.613.677.677,0,0,1-1.354,0,1.354,1.354,0,1,0-1.354,1.354Z" transform="translate(-5.873 -6.191)" fill="#f1592a"/><path d="M50.723,21.888a.959.959,0,0,0-1.054-.88,1.023,1.023,0,0,0-.872.981l-.528,6.388a2.574,2.574,0,0,1,.558,3.9L44.6,37.03a.677.677,0,1,1-1.013-.9l4.225-4.754a1.228,1.228,0,1,0-1.841-1.625L38.67,38.1A2.713,2.713,0,0,0,38,39.882v6.177h5.418V44.3a3.4,3.4,0,0,1,.745-2.116L51.1,33.6a2.018,2.018,0,0,0,.433-1.425Z" transform="translate(-13.619 -8.129)" fill="#f1592a"/></g></g></svg>