<svg xmlns="http://www.w3.org/2000/svg" width="50" height="50" viewBox="0 0 50 50"><path d="M25,0A25,25,0,1,0,50,25,25,25,0,0,0,25,0Zm6.336,22.632-.414,3.484a.658.658,0,0,1-.658.586H26.645V37.03a.467.467,0,0,1-.461.47H22.5a.467.467,0,0,1-.461-.474l.02-10.326h-2.74a.658.658,0,0,1-.658-.658v-3.48a.658.658,0,0,1,.658-.658h2.72V18.53c0-3.9,2.326-6.03,5.724-6.03h2.786a.658.658,0,0,1,.658.658v2.931a.658.658,0,0,1-.658.658H28.842c-1.849.03-2.2.914-2.2,2.237v2.911H30.7a.658.658,0,0,1,.638.737Z" fill="#dedede"/></svg>