<svg xmlns="http://www.w3.org/2000/svg" width="22" height="22" viewBox="0 0 22 22"><path d="M276.39,213.9h-8.974a.716.716,0,0,0-.716.716v2.869a.716.716,0,0,0,.716.716h5.055a6.737,6.737,0,0,1-2.9,3.4l2.153,3.731a10.789,10.789,0,0,0,5.5-9.431,7.43,7.43,0,0,0-.122-1.409A.725.725,0,0,0,276.39,213.9Z" transform="translate(-255.22 -204.813)" fill="#167ee6"/><path d="M63.921,328.849a6.694,6.694,0,0,1-5.79-3.349L54.4,327.648a10.99,10.99,0,0,0,15.023,4.033v0l-2.153-3.731a6.638,6.638,0,0,1-3.349.9Z" transform="translate(-52.921 -311.155)" fill="#12b347"/><path d="M262,381.136v0l-2.153-3.731a6.655,6.655,0,0,1-3.345.9v4.306A10.951,10.951,0,0,0,262,381.136Z" transform="translate(-245.5 -360.61)" fill="#0f993e"/><path d="M27.306,143.393a6.655,6.655,0,0,1,.9-3.345L24.479,137.9a10.938,10.938,0,0,0,0,10.986l3.731-2.148A6.607,6.607,0,0,1,27.306,143.393Z" transform="translate(-23 -132.393)" fill="#ffd500"/><path d="M63.921,25.306a6.666,6.666,0,0,1,4.249,1.526.715.715,0,0,0,.961-.042l2.03-2.03a.722.722,0,0,0-.042-1.055,10.964,10.964,0,0,0-16.719,2.8l3.731,2.148A6.694,6.694,0,0,1,63.921,25.306Z" transform="translate(-52.921 -21)" fill="#ff4b26"/><path d="M260.749,26.832a.716.716,0,0,0,.961-.042l2.03-2.03A.722.722,0,0,0,263.7,23.7a10.931,10.931,0,0,0-7.2-2.7v4.306a6.64,6.64,0,0,1,4.249,1.526Z" transform="translate(-245.5 -21)" fill="#d93f21"/></svg>