<svg xmlns="http://www.w3.org/2000/svg" width="40" height="40" viewBox="0 0 40 40"><path d="M32.5,40H7.5A7.5,7.5,0,0,1,0,32.5V7.5A7.5,7.5,0,0,1,7.5,0h25A7.5,7.5,0,0,1,40,7.5v25A7.5,7.5,0,0,1,32.5,40Z" fill="#ffe6e2"/><path d="M17.029,11.892a5.131,5.131,0,1,0,5.131,5.131A5.131,5.131,0,0,0,17.029,11.892Zm0,8.463a3.331,3.331,0,1,1,3.331-3.331,3.331,3.331,0,0,1-3.331,3.331Z" transform="translate(2.975 2.973)" fill="#fd907e"/><path d="M22.124,8.063c-1.84-.086-6.4-.082-8.24,0a5.979,5.979,0,0,0-4.2,1.618C7.764,11.6,8.01,14.2,8.01,18c0,3.89-.216,6.423,1.677,8.316,1.93,1.93,4.56,1.678,8.316,1.678,4.6,0,9.641.441,9.934-5.874.086-1.841.083-6.4,0-8.239-.165-3.511-2.05-5.64-5.814-5.815ZM25.035,25.04c-1.261,1.261-3.01,1.149-7.057,1.149-4.166,0-5.837.061-7.058-1.161-1.4-1.4-1.15-3.642-1.15-7.044,0-8.313.476-8.206,8.195-8.206L18,9.8C26.28,9.8,26.2,10.339,26.2,18,26.2,22.114,26.275,23.8,25.035,25.04Z" transform="translate(2 2)" fill="#fc573b"/><circle cx="1.199" cy="1.199" r="1.199" transform="translate(24.14 13.464)" fill="#fd907e"/></svg>