<svg xmlns="http://www.w3.org/2000/svg" width="50" height="50" viewBox="0 0 50 50"><g transform="translate(0 0)"><circle cx="3.915" cy="3.915" r="3.915" transform="translate(21.085 21.085)" fill="#dedede"/><path d="M60.543,45.65H50.529a4.889,4.889,0,0,0-4.889,4.889V60.55a4.889,4.889,0,0,0,4.889,4.889H60.543a4.889,4.889,0,0,0,4.889-4.889V50.536a4.889,4.889,0,0,0-4.889-4.886Zm-5.007,16.3a6.408,6.408,0,1,1,6.405-6.407,6.408,6.408,0,0,1-6.405,6.407Zm6.444-11.233a1.584,1.584,0,1,1,1.581-1.581A1.584,1.584,0,0,1,61.981,50.719Z" transform="translate(-30.536 -30.543)" fill="#dedede"/><path d="M25,0A25,25,0,1,0,50,25,25,25,0,0,0,25,0ZM37.5,30.053A7.454,7.454,0,0,1,30.053,37.5H19.947A7.457,7.457,0,0,1,12.5,30.053V19.947A7.457,7.457,0,0,1,19.947,12.5H30.053A7.457,7.457,0,0,1,37.5,19.947Z" fill="#dedede"/></g></svg>