<svg xmlns="http://www.w3.org/2000/svg" width="50" height="50" viewBox="0 0 50 50"><path d="M25,0A25,25,0,1,0,50,25,25,25,0,0,0,25,0ZM18.638,36.655a.845.845,0,0,1-.845.845H14.2a.842.842,0,0,1-.845-.845V21.592a.845.845,0,0,1,.845-.845h3.592a.845.845,0,0,1,.845.845ZM16.007,19.329a3.406,3.406,0,1,0-.01,0ZM37.428,36.724a.776.776,0,0,1-.776.776H32.786a.776.776,0,0,1-.776-.776V29.658c0-1.056.306-4.605-2.757-4.605-2.375,0-2.859,2.441-2.961,3.536V36.74a.776.776,0,0,1-.77.76h-3.73a.773.773,0,0,1-.776-.776v-15.2a.776.776,0,0,1,.776-.78h3.73a.78.78,0,0,1,.793.78v1.316c.882-1.316,2.191-2.345,4.977-2.345,6.178,0,6.141,5.77,6.141,8.938Z" fill="#dedede"/></svg>