<svg xmlns="http://www.w3.org/2000/svg" width="40" height="40" viewBox="0 0 40 40"><path d="M32.5,40H7.5A7.5,7.5,0,0,1,0,32.5V7.5A7.5,7.5,0,0,1,7.5,0h25A7.5,7.5,0,0,1,40,7.5v25A7.5,7.5,0,0,1,32.5,40Z" fill="rgba(0,119,181,0.1)"/><path d="M26.58,26.738h0V19.4c0-3.589-.772-6.352-4.967-6.352a4.354,4.354,0,0,0-3.923,2.156h-.057V13.384H13.66V26.736H17.8V20.125c0-1.741.33-3.424,2.486-3.424,2.124,0,2.156,1.986,2.156,3.536v6.5Z" transform="translate(3.415 3.262)" fill="#0077b5"/><g transform="translate(10 10)"><path d="M8.264,13.318H12.41V26.67H8.264Z" transform="translate(-7.934 -6.67)" fill="#0077b5"/><path d="M10.4,8a2.413,2.413,0,1,0,2.4,2.4A2.4,2.4,0,0,0,10.4,8Z" transform="translate(-8 -8)" fill="#0077b5" opacity="0.7"/></g></svg>