<svg xmlns="http://www.w3.org/2000/svg" width="18.149" height="18.149" viewBox="0 0 18.149 18.149"><g transform="translate(-2 -2)"><path d="M11.85,17.048a1.479,1.479,0,1,0-1.479-1.479A1.479,1.479,0,0,0,11.85,17.048Z" transform="translate(-0.775 -1.119)" fill="#adb4b7"/><path d="M16.773,8.833V7.7c0-2.45-.59-5.7-5.7-5.7s-5.7,3.249-5.7,5.7V8.833C2.835,9.151,2,10.439,2,13.606v1.688c0,3.721,1.134,4.855,4.855,4.855h8.439c3.721,0,4.855-1.134,4.855-4.855V13.606C20.149,10.439,19.314,9.151,16.773,8.833Zm-5.7,8.358a2.741,2.741,0,1,1,2.741-2.741A2.744,2.744,0,0,1,11.075,17.191ZM6.855,8.751H6.646V7.7c0-2.659.753-4.428,4.428-4.428S15.5,5.04,15.5,7.7V8.761H6.855Z" fill="#adb4b7"/></g></svg>