<svg xmlns="http://www.w3.org/2000/svg" width="54.696" height="54.696" viewBox="0 0 54.696 54.696"><path d="M44.44,54.7H10.255A10.255,10.255,0,0,1,0,44.44V10.255A10.255,10.255,0,0,1,10.255,0H44.44A10.255,10.255,0,0,1,54.7,10.255V44.44A10.255,10.255,0,0,1,44.44,54.7Z" fill="rgba(241,89,42,0.15)"/><g transform="translate(13.674 13.674)"><path d="M27.455,27.936,21.472,17.111a.86.86,0,0,0-.764-.444.85.85,0,0,0-.752.467l-.969,1.892,4.535,8.068a2.528,2.528,0,0,1,.171,2.107H26.7a.857.857,0,0,0,.74-.422A.878.878,0,0,0,27.455,27.936Z" transform="translate(-0.208 -1.853)" fill="#f1592a"/><path d="M29.823,27.286l-5.458-9.72L22.19,19.412a2.567,2.567,0,0,1-1.653.605,2.533,2.533,0,0,1-1.709-.65,2.533,2.533,0,0,1-1.709.65,2.569,2.569,0,0,1-1.663-.615l-2.073-1.755L8.106,27.3a.852.852,0,0,0,.012.843.87.87,0,0,0,.74.422H29.083a.857.857,0,0,0,.74-.422.874.874,0,0,0,0-.855Z" transform="translate(-8 -1.215)" fill="#f1592a"/><path d="M21.241,13.7H14.69a.855.855,0,0,1-.855-.855V8.855A.855.855,0,0,1,14.69,8h6.552a.855.855,0,0,1,.648,1.412l-1.232,1.437,1.232,1.437a.853.853,0,0,1-.648,1.41Z" transform="translate(-3.862 -8)" fill="#f1592a"/><path d="M14.69,17.115a.855.855,0,0,1-.855-.855V8.855a.855.855,0,1,1,1.709,0v7.406A.855.855,0,0,1,14.69,17.115Z" transform="translate(-3.862 -8)" fill="#f1592a"/></g><path d="M20.933,19.764l-2.427,2.051a.841.841,0,0,1-1.15-.046L16.25,20.663l-1.106,1.106a.845.845,0,0,1-1.15.046l-2.359-1.983.843-1.526L15.5,12.78a.849.849,0,0,1,.752-.444.792.792,0,0,1,.74.432l3.089,5.482Z" transform="translate(8.252 8.746)" fill="#ffae95"/></svg>