<svg xmlns="http://www.w3.org/2000/svg" width="65" height="65" viewBox="0 0 65 65"><g transform="translate(-0.5)"><circle cx="32.5" cy="32.5" r="32.5" transform="translate(0.5)" fill="#fcb040" opacity="0.15"/><g transform="translate(16.377 15.973)"><path d="M19.367,11.316a1.193,1.193,0,0,0-.339,0,4.674,4.674,0,1,1,.339,0Z" transform="translate(5.712 -2)" fill="#fcb040"/><path d="M23.366,17.584a10.025,10.025,0,0,1-6.684,1.356,10.544,10.544,0,0,0,.953-4.343A9.921,9.921,0,0,0,16.6,10.109a10.07,10.07,0,0,1,6.749,1.34C25.9,13.128,25.9,15.889,23.366,17.584Z" transform="translate(6.979 2.921)" fill="#fcb040"/><path d="M8.149,11.316a1.193,1.193,0,0,1,.339,0,4.658,4.658,0,1,0-.339,0Z" transform="translate(-0.973 -2)" fill="#fcb040"/><path d="M9.35,14.6a10.514,10.514,0,0,0,.953,4.391A9.976,9.976,0,0,1,3.909,17.6c-2.551-1.7-2.551-4.456,0-6.151a9.915,9.915,0,0,1,6.458-1.372A10.265,10.265,0,0,0,9.35,14.6Z" transform="translate(-1.996 2.921)" fill="#fcb040"/><path d="M14.315,20.092a1.824,1.824,0,0,0-.42,0,5.57,5.57,0,1,1,.42,0Z" transform="translate(2.032 2.302)" fill="#fcb040"/><path d="M9.567,18.471c-2.438,1.631-2.438,4.311,0,5.925a9.866,9.866,0,0,0,10.107,0c2.438-1.631,2.438-4.311,0-5.925A9.866,9.866,0,0,0,9.567,18.471Z" transform="translate(1.533 7.266)" fill="#fcb040"/></g></g></svg>