<svg xmlns="http://www.w3.org/2000/svg" width="65" height="65" viewBox="0 0 65 65"><g transform="translate(-0.5)"><circle cx="32.5" cy="32.5" r="32.5" transform="translate(0.5)" fill="#25aae1" opacity="0.1"/><g transform="translate(18.516 12.638)"><path d="M16.685,2a9.426,9.426,0,0,0-.238,18.85,1.6,1.6,0,0,1,.437,0h.139A9.428,9.428,0,0,0,16.685,2Z" transform="translate(-2.703 -2)" fill="#25aae1"/><path d="M29.035,15.525c-5.542-3.695-14.579-3.695-20.161,0C6.351,17.213,4.961,19.5,4.961,21.941s1.39,4.708,3.893,6.376a18.352,18.352,0,0,0,10.09,2.8,18.352,18.352,0,0,0,10.09-2.8c2.5-1.688,3.893-3.953,3.893-6.416C32.908,19.458,31.537,17.193,29.035,15.525ZM22.917,23.43H20.434v2.483a1.49,1.49,0,1,1-2.979,0V23.43H14.972a1.49,1.49,0,0,1,0-2.979h2.483V17.968a1.49,1.49,0,1,1,2.979,0v2.483h2.483a1.49,1.49,0,0,1,0,2.979Z" transform="translate(-4.961 8.607)" fill="#25aae1"/></g></g></svg>