<svg xmlns="http://www.w3.org/2000/svg" width="50" height="50" viewBox="0 0 50 50"><path d="M61.175,56.481c0,.708.329.988,2.338,1.469l.4.1c2.2.524,5.526,1.317,5.526,4.983a3.991,3.991,0,0,1-2.5,3.893,8.816,8.816,0,0,1-3.425.55h-.155a7.9,7.9,0,0,1-5.727-2.8A1.647,1.647,0,0,1,60.2,62.639,4.914,4.914,0,0,0,63.358,64.2h.155c2.095.036,2.582-.609,2.635-1.163.079-.659-.471-1.146-2.635-1.7l-.359-.089c-2.1-.5-5.269-1.248-5.269-4.627,0-1.031.412-4.354,5.622-4.479h.31A7.363,7.363,0,0,1,69.414,55a1.647,1.647,0,0,1-2.635,1.956,4.94,4.94,0,0,0-2.964-1.521h-.31C62.294,55.368,61.175,55.829,61.175,56.481Z" transform="translate(-38.513 -35.004)" fill="#dedede"/><path d="M25,0A25,25,0,1,0,50,25,25,25,0,0,0,25,0ZM37.5,30.309a5.352,5.352,0,0,1-4.934,5.033,5.283,5.283,0,0,1-1.819-.188,3.24,3.24,0,0,0-1.974.1A10.914,10.914,0,0,1,14.089,25a3.211,3.211,0,0,0-.582-1.895,5.332,5.332,0,0,1,5.766-8.26,3.24,3.24,0,0,0,1.974-.092A10.914,10.914,0,0,1,35.911,25a3.211,3.211,0,0,0,.582,1.895A5.313,5.313,0,0,1,37.5,30.309Z" fill="#dedede"/></svg>