<svg xmlns="http://www.w3.org/2000/svg" width="40" height="40" viewBox="0 0 40 40"><path d="M32.5,40H7.5A7.5,7.5,0,0,1,0,32.5V7.5A7.5,7.5,0,0,1,7.5,0h25A7.5,7.5,0,0,1,40,7.5v25A7.5,7.5,0,0,1,32.5,40Z" fill="#e3f8fa"/><path d="M15.847,20.318l-.33,4.654a1.157,1.157,0,0,0,.924-.448L18.66,22.4l4.6,3.368c.842.47,1.438.222,1.665-.776l3.019-14.142h0c.268-1.246-.45-1.734-1.272-1.427L8.929,16.214c-1.21.47-1.193,1.145-.206,1.451l4.535,1.411,10.536-6.592c.5-.329.946-.146.576.181Z" transform="translate(2 2.333)" fill="#26c6da"/></svg>