<svg xmlns="http://www.w3.org/2000/svg" width="50" height="50" viewBox="0 0 50 50"><path d="M25,0A25,25,0,1,0,50,25,25,25,0,0,0,25,0ZM37.451,17.434a10.556,10.556,0,0,1-2.141,2.352.914.914,0,0,0-.329.714v.082a14.993,14.993,0,0,1-.967,5.217,15.28,15.28,0,0,1-2.845,4.77A14.056,14.056,0,0,1,25,34.645a15.428,15.428,0,0,1-4.849.753,14.8,14.8,0,0,1-7.433-2,.428.428,0,0,1-.206-.475.411.411,0,0,1,.4-.309h.625a9.97,9.97,0,0,0,5.572-1.691,5.411,5.411,0,0,1-4.276-3.674.283.283,0,0,1,.329-.365,4.96,4.96,0,0,0,.908.086h.115A5.4,5.4,0,0,1,13.039,22a.283.283,0,0,1,.418-.247,4.75,4.75,0,0,0,1.23.477,5.4,5.4,0,0,1-.872-6.549.283.283,0,0,1,.464-.036,14.145,14.145,0,0,0,9.707,5.187h.026a.2.2,0,0,0,.2-.22,5.72,5.72,0,0,1,.125-1.974,5.234,5.234,0,0,1,3.52-3.763,5.786,5.786,0,0,1,1.707-.263,5.382,5.382,0,0,1,3.566,1.345.7.7,0,0,0,.464.178.707.707,0,0,0,.164-.023,9.967,9.967,0,0,0,2.632-1.086.28.28,0,0,1,.411.329,5.339,5.339,0,0,1-1.418,2.26,9.665,9.665,0,0,0,1.724-.582.283.283,0,0,1,.345.4Z" fill="#dedede"/></svg>