<svg xmlns="http://www.w3.org/2000/svg" width="40" height="40" viewBox="0 0 40 40"><path d="M32.5,40H7.5A7.5,7.5,0,0,1,0,32.5V7.5A7.5,7.5,0,0,1,7.5,0h25A7.5,7.5,0,0,1,40,7.5v25A7.5,7.5,0,0,1,32.5,40Z" fill="rgba(76,175,80,0.1)"/><path d="M21.593,18.864l-.007.063c-1.833-.912-2.024-1.035-2.261-.68-.164.246-.643.8-.786.969s-.291.175-.539.062a6.763,6.763,0,0,1-2-1.237,7.59,7.59,0,0,1-1.384-1.725c-.245-.421.266-.481.731-1.361a.454.454,0,0,0-.021-.436c-.062-.125-.56-1.35-.769-1.839s-.406-.425-.56-.425a1.242,1.242,0,0,0-1.14.286c-1.345,1.479-1.006,3,.145,4.625,2.261,2.96,3.466,3.5,5.67,4.261a3.459,3.459,0,0,0,1.566.1,2.566,2.566,0,0,0,1.68-1.189,2.063,2.063,0,0,0,.15-1.187c-.059-.113-.222-.175-.472-.288Z" transform="translate(2.996 3.059)" fill="#4caf50" opacity="0.7"/><path d="M25.1,10.874C18.693,4.68,8.088,9.173,8.084,17.911a9.866,9.866,0,0,0,1.329,4.954L8,28l5.279-1.376A9.976,9.976,0,0,0,28,17.916a9.829,9.829,0,0,0-2.913-7.009Zm1.235,7.015a8.3,8.3,0,0,1-12.51,7.086l-.3-.179-3.125.813.837-3.038-.2-.312A8.265,8.265,0,0,1,23.911,12.064a8.156,8.156,0,0,1,2.424,5.825Z" transform="translate(2 2)" fill="#4caf50"/></svg>