<svg xmlns="http://www.w3.org/2000/svg" xmlns:xlink="http://www.w3.org/1999/xlink" width="499.601" height="563.619" viewBox="0 0 499.601 563.619"><defs><linearGradient id="a" x1="0.562" y1="0.208" x2="0.178" y2="1.268" gradientUnits="objectBoundingBox"><stop offset="0" stop-color="#6270ca"/><stop offset="0.128" stop-color="#6873c7"/><stop offset="0.296" stop-color="#797bbe"/><stop offset="0.488" stop-color="#9489af"/><stop offset="0.697" stop-color="#ba9c9b"/><stop offset="0.917" stop-color="#ebb481"/><stop offset="1" stop-color="#ffbe76"/></linearGradient><linearGradient id="b" x1="-0.146" y1="1.288" x2="0.955" y2="-0.055" gradientUnits="objectBoundingBox"><stop offset="0" stop-color="#ffdc8a"/><stop offset="1" stop-color="#ffc15b"/></linearGradient><linearGradient id="c" x1="0.579" y1="0.231" x2="0.274" y2="1.165" xlink:href="#a"/><linearGradient id="d" x1="1.07" y1="-0.134" x2="0.276" y2="0.739" gradientUnits="objectBoundingBox"><stop offset="0" stop-color="#ff791f"/><stop offset="1" stop-color="#ffc15b"/></linearGradient><linearGradient id="e" x1="-0.297" y1="-0.189" x2="0.471" y2="0.52" xlink:href="#d"/><linearGradient id="f" x1="0.722" y1="-0.148" x2="0.341" y2="0.965" xlink:href="#a"/><linearGradient id="g" x1="0.003" y1="-0.083" x2="0.624" y2="0.527" xlink:href="#d"/><linearGradient id="h" x1="0.793" y1="-0.228" x2="0.201" y2="1.233" xlink:href="#a"/><linearGradient id="i" x1="0.5" y1="-0.161" x2="0.5" y2="0.894" xlink:href="#d"/><linearGradient id="j" x1="0.573" y1="-0.132" x2="-0.264" y2="1.376" xlink:href="#d"/><linearGradient id="k" x1="0.382" y1="0.714" x2="0.759" y2="0.029" gradientUnits="objectBoundingBox"><stop offset="0" stop-color="#6270ca"/><stop offset="0.246" stop-color="#616ec4"/><stop offset="0.571" stop-color="#5d67b3"/><stop offset="0.939" stop-color="#565b98"/><stop offset="1" stop-color="#555993"/></linearGradient><linearGradient id="l" x1="0.759" y1="-0.426" x2="-0.114" y2="2.699" gradientUnits="objectBoundingBox"><stop offset="0" stop-color="#fff5de"/><stop offset="1" stop-color="#fff"/></linearGradient><linearGradient id="m" x1="0.794" y1="0.128" x2="0.024" y2="1.252" gradientUnits="objectBoundingBox"><stop offset="0.007" stop-color="#555993"/><stop offset="1" stop-color="#e0ceca"/></linearGradient><linearGradient id="n" x1="0.154" y1="1.023" x2="0.59" y2="0.353" gradientUnits="objectBoundingBox"><stop offset="0" stop-color="#353a7e"/><stop offset="1" stop-color="#555993"/></linearGradient><linearGradient id="o" x1="0.795" y1="0.128" x2="0.025" y2="1.252" xlink:href="#m"/><linearGradient id="p" x1="0.153" y1="1.023" x2="0.589" y2="0.353" xlink:href="#n"/><linearGradient id="q" x1="0.795" y1="0.128" x2="0.025" y2="1.252" xlink:href="#m"/><linearGradient id="r" x1="0.153" y1="1.023" x2="0.589" y2="0.353" xlink:href="#n"/><linearGradient id="s" x1="0.795" y1="0.128" x2="0.024" y2="1.252" xlink:href="#m"/><linearGradient id="t" x1="0.154" y1="1.023" x2="0.59" y2="0.353" xlink:href="#n"/><linearGradient id="u" x1="1.531" y1="0.529" x2="-0.918" y2="0.472" xlink:href="#a"/><linearGradient id="v" x1="0.75" y1="0.933" x2="0.25" y2="0.067" gradientUnits="objectBoundingBox"><stop offset="0" stop-color="#ffd57e"/><stop offset="0.989" stop-color="#fff2a9"/></linearGradient><linearGradient id="w" x1="0.75" y1="0.933" x2="0.25" y2="0.067" xlink:href="#v"/><linearGradient id="x" x1="0.75" y1="0.933" x2="0.25" y2="0.067" xlink:href="#v"/><linearGradient id="y" x1="-1.299" y1="-0.81" x2="0.569" y2="0.477" gradientUnits="objectBoundingBox"><stop offset="0.405" stop-color="#ded5ce"/><stop offset="0.478" stop-color="#e1dad3"/><stop offset="0.568" stop-color="#ece7e2"/><stop offset="0.61" stop-color="#f2efec"/><stop offset="1" stop-color="#fff"/></linearGradient><linearGradient id="z" x1="-0.508" y1="0.12" x2="1.119" y2="0.757" xlink:href="#y"/></defs><g transform="translate(-109.42 -115.57)"><g transform="translate(158.525 115.57)"><g transform="translate(160.369 44.975)"><path d="M256.288,305.543s-4.893-30.1-4.56-35.072S329.446,161.34,329.446,161.34L283.825,298.751Z" transform="translate(-182.699 -116.737)" fill="url(#a)"/><g transform="translate(0 156.415)"><path d="M216.45,285.424,339.77,218.47l30.512,56.209L246.942,341.614Z" transform="translate(-216.45 -218.47)" fill="url(#b)"/><path d="M283.15,250.175a20.033,20.033,0,1,1-27.165-8.044A20.026,20.026,0,0,1,283.15,250.175Z" transform="translate(-188.639 -198.154)" fill="#ffc15b" opacity="0.3"/><rect width="32.43" height="6.185" transform="translate(9.623 69.81) rotate(-28.498)" fill="#ff791f" opacity="0.2"/><rect width="14.679" height="6.185" transform="translate(15.398 80.447) rotate(-28.498)" fill="#ff791f" opacity="0.2"/><rect width="32.43" height="6.185" transform="translate(144.197 53.358) rotate(151.502)" fill="#ff791f" opacity="0.2"/></g><path d="M270.407,261.458s-10.04,63.294-.372,63.607c9.688.313,20.746-49.066,20.746-49.066s27.361-12.78,31.04-19.513c3.7-6.733,3.66-28.379,3.66-28.379l38.086-35.229L315.891,161.33Z" transform="translate(-169.184 -116.746)" fill="url(#c)"/><path d="M392.624,181.94l-36.07,45.68L291.42,183.153l34.681-44.6Z" transform="translate(-144.693 -138.55)" fill="url(#d)"/></g><path d="M272.869,272.943s1.938-30.434,1.135-35.366c-.8-4.912-87.974-101.048-87.974-101.048L244.8,268.853Z" transform="translate(-85.198 -95.508)" fill="url(#e)"/><g transform="translate(98.029 134.373)"><path d="M248.092,285.475,186.5,228.562a5.911,5.911,0,0,1-.333-8.357l31.491-34.074a5.911,5.911,0,0,1,8.357-.333l61.591,56.914a5.911,5.911,0,0,1,.333,8.357l-31.49,34.074A5.894,5.894,0,0,1,248.092,285.475Z" transform="translate(-184.598 -184.228)" fill="url(#f)"/><rect width="95.705" height="14.365" transform="translate(28.588 6.762) rotate(42.735)" fill="#8280b8"/><path d="M224.107,231.977a8.033,8.033,0,1,1-.45-11.351A8.022,8.022,0,0,1,224.107,231.977Z" transform="translate(-160.123 -151.435)" fill="#ffc15b" opacity="0.3"/><path d="M228.817,236.327a8.033,8.033,0,1,1-.45-11.351A8.022,8.022,0,0,1,228.817,236.327Z" transform="translate(-155.615 -147.272)" fill="#ffc15b" opacity="0.3"/></g><path d="M262.764,231.735s16.146,62.022,6.556,63.275c-9.61,1.253-25.423-46.815-25.423-46.815s-28.477-10.06-32.8-16.4-6.4-27.889-6.4-27.889L163.36,172.551l44.369-36.031Z" transform="translate(-106.896 -95.518)" fill="url(#g)"/><path d="M134.51,165.223l40.337,41.942,60.5-50.573L196.493,115.57Z" transform="translate(-134.51 -115.57)" fill="url(#h)"/></g><rect width="312.987" height="265.096" transform="translate(181.306 414.055)" fill="url(#i)"/><path d="M211.3,268.08l-37.949,265.1h-9.062l3.249-22.664H146.15V501.45h22.7l4.678-32.684H146.15V459.7h28.672L179.5,427.02H146.15v-9.062h34.642l4.678-32.684H146.15v-9.062h40.63l4.678-32.684H146.15v-9.062h46.6l4.678-32.684H149.849l-3.7,25.8V268.139h8.514L151.141,292.7h47.578l3.523-24.562H211.3Z" transform="translate(35.156 145.975)" fill="url(#j)"/><path d="M238.389,247.72l-5.167,22.664H185.644l5.167-22.664h-9.062L112.29,552.663h9.062L126.518,530H174.1l-5.167,22.664h9.062L247.451,247.72h-9.062Zm-62.218,273.2H128.593l7.437-32.684h47.578Zm9.512-41.746H138.1l7.437-32.684H193.12Zm9.512-41.766H147.617l7.437-32.684h47.578Zm9.512-41.746H157.128l7.437-32.684h47.578Zm9.512-41.766H166.64l7.437-32.684h47.578Zm9.512-41.746H176.152l7.437-32.684h47.578Z" transform="translate(2.747 126.487)" fill="url(#k)"/><g transform="translate(357.723 465.704)"><path d="M357.242,312.917h0c0-8.044-3.523-14.561-8.357-16.186h0a10.732,10.732,0,0,0-1.135-.294c-.02,0-.039,0-.039-.02a8.235,8.235,0,0,0-1.213-.1h0c-3.014,0-5.7,1.82-7.633,4.815-.235.372-.47.763-.685,1.174a22.7,22.7,0,0,0-2.427,10.608h4.541c0-7.1,3.268-12.056,6.224-12.056a2.8,2.8,0,0,1,1.018.215.513.513,0,0,1,.157.059,4.316,4.316,0,0,1,.9.528,2.209,2.209,0,0,1,.254.2c2.114,1.781,3.914,5.832,3.914,11.077H319.684c0-8.024-3.523-14.542-8.357-16.186h0a10.731,10.731,0,0,0-1.135-.294c-.02,0-.039,0-.039-.02a8.235,8.235,0,0,0-1.213-.1c-6.028,0-10.745,7.281-10.745,16.6h4.541c0-7.1,3.268-12.056,6.224-12.056a2.8,2.8,0,0,1,1.018.215.513.513,0,0,1,.157.059,4.314,4.314,0,0,1,.9.528,2.215,2.215,0,0,1,.254.2c2.114,1.781,3.914,5.832,3.914,11.077H263.4L236.29,506.185H372.918V312.917Z" transform="translate(-236.29 -292.699)" fill="#ffc563" opacity="0.2"/><path d="M470.924,499.666H274.368L253.7,303.09H450.276Z" transform="translate(-219.626 -286.219)" fill="#ffd37a"/><path d="M450.276,303.09H253.7l3.8,36.07H454.053Z" transform="translate(-219.626 -286.219)" fill="url(#l)"/><g transform="translate(69.498)"><path d="M283.013,312.407a3.816,3.816,0,1,1-3.816-3.816A3.821,3.821,0,0,1,283.013,312.407Z" transform="translate(-268.373 -280.955)" fill="#fffeff"/><path d="M271.8,311.341c0-9.473,4.8-16.871,10.94-16.871s10.94,7.418,10.94,16.871c0,9.473-4.8,16.871-10.94,16.871a2.309,2.309,0,1,1,0-4.619c2.994,0,6.322-5.03,6.322-12.271,0-7.222-3.327-12.271-6.322-12.271s-6.322,5.03-6.322,12.271H271.8Z" transform="translate(-271.8 -294.47)" fill="#555993"/><path d="M284.675,304.49c-.7,5.734-3.562,9.531-6.145,9.531a2.309,2.309,0,0,0,0,4.619c5.265,0,9.551-5.48,10.647-13.015C287.65,305.234,286.143,304.9,284.675,304.49Z" transform="translate(-267.569 -284.879)" fill="url(#m)"/><path d="M285.167,300.146v-5.265a7.8,7.8,0,0,0-2.427-.411c-6.126,0-10.94,7.418-10.94,16.871h4.619c0-7.222,3.327-12.271,6.322-12.271A3.91,3.91,0,0,1,285.167,300.146Z" transform="translate(-271.8 -294.47)" fill="url(#n)"/><g transform="translate(38.223)"><circle cx="3.816" cy="3.816" r="3.816" transform="translate(7.007 27.635)" fill="#fffeff"/><path d="M291.33,311.341c0-9.473,4.8-16.871,10.94-16.871,6.126,0,10.94,7.418,10.94,16.871,0,9.473-4.795,16.871-10.94,16.871a2.309,2.309,0,0,1,0-4.619c2.994,0,6.322-5.03,6.322-12.271,0-7.222-3.327-12.271-6.322-12.271s-6.322,5.03-6.322,12.271H291.33Z" transform="translate(-291.33 -294.47)" fill="#555993"/><path d="M304.195,304.49c-.7,5.734-3.562,9.531-6.145,9.531a2.309,2.309,0,0,0,0,4.619c5.265,0,9.551-5.48,10.647-13.015C307.189,305.234,305.663,304.9,304.195,304.49Z" transform="translate(-287.109 -284.879)" fill="url(#o)"/><path d="M304.7,300.146v-5.265a7.8,7.8,0,0,0-2.427-.411c-6.126,0-10.94,7.418-10.94,16.871h4.619c0-7.222,3.327-12.271,6.322-12.271A3.91,3.91,0,0,1,304.7,300.146Z" transform="translate(-291.33 -294.47)" fill="url(#p)"/></g><g transform="translate(76.446)"><circle cx="3.816" cy="3.816" r="3.816" transform="translate(7.007 27.635)" fill="#fffeff"/><path d="M310.86,311.341c0-9.473,4.8-16.871,10.94-16.871,6.126,0,10.941,7.418,10.941,16.871,0,9.473-4.8,16.871-10.941,16.871a2.309,2.309,0,0,1,0-4.619c2.995,0,6.322-5.03,6.322-12.271,0-7.222-3.327-12.271-6.322-12.271s-6.322,5.03-6.322,12.271H310.86Z" transform="translate(-310.86 -294.47)" fill="#555993"/><path d="M323.725,304.49c-.7,5.734-3.562,9.531-6.146,9.531a2.309,2.309,0,0,0,0,4.619c5.265,0,9.551-5.48,10.647-13.015C326.719,305.234,325.193,304.9,323.725,304.49Z" transform="translate(-306.639 -284.879)" fill="url(#q)"/><path d="M324.227,300.146v-5.265a7.8,7.8,0,0,0-2.427-.411c-6.126,0-10.94,7.418-10.94,16.871h4.619c0-7.222,3.327-12.271,6.322-12.271A3.955,3.955,0,0,1,324.227,300.146Z" transform="translate(-310.86 -294.47)" fill="url(#r)"/></g><g transform="translate(114.65)"><path d="M341.593,312.407a3.816,3.816,0,1,1-3.816-3.816A3.821,3.821,0,0,1,341.593,312.407Z" transform="translate(-326.953 -280.955)" fill="#fffeff"/><g transform="translate(0.02)"><path d="M330.39,311.341c0-9.473,4.8-16.871,10.94-16.871,6.126,0,10.94,7.418,10.94,16.871,0,9.473-4.8,16.871-10.94,16.871a2.309,2.309,0,0,1,0-4.619c2.994,0,6.322-5.03,6.322-12.271,0-7.222-3.327-12.271-6.322-12.271s-6.322,5.03-6.322,12.271H330.39Z" transform="translate(-330.39 -294.47)" fill="#555993"/></g><path d="M343.255,304.49c-.7,5.734-3.562,9.531-6.145,9.531a2.309,2.309,0,0,0,0,4.619c5.265,0,9.551-5.48,10.647-13.015C346.249,305.234,344.723,304.9,343.255,304.49Z" transform="translate(-326.149 -284.879)" fill="url(#s)"/><path d="M343.747,300.146v-5.265a7.8,7.8,0,0,0-2.427-.411c-6.126,0-10.94,7.418-10.94,16.871H335c0-7.222,3.327-12.271,6.322-12.271A3.866,3.866,0,0,1,343.747,300.146Z" transform="translate(-330.38 -294.47)" fill="url(#t)"/></g></g><path d="M300.682,363.423h27.733l2.857,27.263H303.54Zm-3.562,27.263H269.387l-2.857-27.263h27.733Zm37.734-27.263h27.733l2.857,27.263H337.711Zm31.275,33.7,2.857,27.263H341.254L338.4,397.125Zm6.439,0H400.3l2.857,27.263H375.426Zm34.172,0h27.733l2.857,27.263H409.6Zm-.685-6.439L403.2,363.423H430.93l2.857,27.263Zm-6.419,0H371.9l-2.857-27.263h27.733ZM368.341,357l-2.857-27.263h27.733L396.074,357Zm-6.419,0H334.189l-2.857-27.263h27.733Zm-34.172,0H300.017l-2.857-27.263h27.733Zm-57.677,40.122h27.733l2.857,27.263H272.93Zm34.152,0h27.733l2.857,27.263H307.082Zm31.295,33.682,2.857,27.263H310.644l-2.857-27.263Zm6.419,0h27.733l2.857,27.263H344.8ZM430.245,357H402.513l-2.857-27.263h27.733Zm-156.63,73.8h27.733l2.857,27.263H276.472Z" transform="translate(-207.346 -260.711)" fill="#ff791f" opacity="0.2"/><path d="M267.186,303.09,239.61,499.666h48.244Z" transform="translate(-233.112 -286.219)" fill="url(#u)"/></g><g transform="translate(230.144 560.997)"><g transform="translate(0 2.877)" opacity="0.2"><path d="M260.78,403.384c-16.421,3.366-22.174,13.974-24.19,21.235V391.7a23.564,23.564,0,1,0-2.192,0v12.173c-1.468-3.914-4.932-8.748-13.074-10.432,0,0-1.135,13.465,13.074,15.755v30.238c-1.468-3.914-4.932-8.748-13.074-10.432,0,0-1.135,13.465,13.074,15.755v15.109h2.172v-28.2C262.914,428.063,260.78,403.384,260.78,403.384Z" transform="translate(-132.027 -344.63)" fill="#ffc563"/><path d="M192.273,433.4v-36.99a18.632,18.632,0,1,0-2.192,0v18.436c-1.781-5.715-6.478-13.5-18.945-16.068,0,0-1.664,19.415,18.945,22.409V445.96h2.172v-6.322c26.539-3.523,24.406-28.339,24.406-28.339C199.612,414.8,194.074,426.115,192.273,433.4Z" transform="translate(-171.104 -330.684)" fill="#ffc563"/><path d="M231.624,387.352A18.632,18.632,0,1,0,211.9,405.925v30.923h2.172V426.143c15.735-2.466,14.483-17.34,14.483-17.34-9.179,1.879-12.937,7.437-14.483,11.782V405.925A18.621,18.621,0,0,0,231.624,387.352Z" transform="translate(-148.844 -321.572)" fill="#ffc563"/></g><g transform="translate(19.486 65.173)"><rect width="2.231" height="52.98" fill="#ff892a"/></g><g transform="translate(64.657 84.275)"><rect width="2.231" height="33.878" fill="#ff892a"/></g><g transform="translate(104.994 46.071)"><rect width="2.231" height="72.082" fill="#ff892a"/></g><path d="M225.32,403.1s-.568-23.76,25.913-29.181C251.233,373.92,253.484,399.95,225.32,403.1Z" transform="translate(-119.211 -313.718)" fill="#ff892a"/><path d="M181.75,414.551s-.568-23.76,25.913-29.181C207.644,385.37,209.914,411.4,181.75,414.551Z" transform="translate(-160.914 -302.759)" fill="#ff892a"/><path d="M191.687,401.944s.45-18.828-20.53-23.134C171.157,378.81,169.376,399.438,191.687,401.944Z" transform="translate(-171.085 -309.038)" fill="#ff892a"/><path d="M204.71,406.807s-.352-14.639,15.951-17.967C220.661,388.82,222.051,404.849,204.71,406.807Z" transform="translate(-138.938 -299.437)" fill="#ff892a"/><path d="M232.424,385.062s.313-13.309-14.5-16.342C217.922,368.72,216.65,383.3,232.424,385.062Z" transform="translate(-126.315 -318.695)" fill="#ff892a"/><path d="M232.424,403.7s.313-13.309-14.5-16.342C217.922,387.36,216.65,401.921,232.424,403.7Z" transform="translate(-126.315 -300.854)" fill="#ff892a"/><g transform="translate(46.671 48.302)"><circle cx="19.102" cy="19.102" r="19.102" fill="url(#v)"/><g transform="translate(12.173 7.359)" opacity="0.2"><path d="M206.454,393.5v-1.194a7.087,7.087,0,0,1-3.151-1.213,5.605,5.605,0,0,1-1.938-2.231,1.583,1.583,0,0,1-.2-.763,1.284,1.284,0,0,1,.078-.45,1.421,1.421,0,0,1,.665-.744,1.273,1.273,0,0,1,.626-.2,1.851,1.851,0,0,1,1.311.861,4.307,4.307,0,0,0,3.836,1.977,4.1,4.1,0,0,0,2.349-.685,2.336,2.336,0,0,0,1.1-1.938,1.976,1.976,0,0,0-1.1-1.8,7.115,7.115,0,0,0-1.938-.665l-.372-.1a9.969,9.969,0,0,1-4.345-1.722,4.323,4.323,0,0,1-1.781-3.562,4.872,4.872,0,0,1,1.429-3.445,6.1,6.1,0,0,1,3.425-1.722v-1.076a1.28,1.28,0,0,1,.372-.881,1.165,1.165,0,0,1,.881-.352,1.066,1.066,0,0,1,.822.352,1.227,1.227,0,0,1,.352.881v1.076a5.844,5.844,0,0,1,4.208,2.583,1.107,1.107,0,0,1,.157.548,1.824,1.824,0,0,1-.039.274,1.436,1.436,0,0,1-.391.665,1.338,1.338,0,0,1-.92.352,1.271,1.271,0,0,1-.842-.254,6.5,6.5,0,0,0-1.507-1.057,4.6,4.6,0,0,0-1.879-.352,3.854,3.854,0,0,0-2.231.646,2.092,2.092,0,0,0-.959,1.761,1.866,1.866,0,0,0,1.253,1.742,11.763,11.763,0,0,0,2.9.842,9.968,9.968,0,0,1,3.7,1.644,4.3,4.3,0,0,1,1.664,3.5,5.271,5.271,0,0,1-1.448,3.64,6.421,6.421,0,0,1-3.64,1.879v1.213a1.179,1.179,0,0,1-1.194,1.213A1.274,1.274,0,0,1,206.454,393.5Z" transform="translate(-201.17 -371.6)" fill="#ff791f"/></g></g><g transform="translate(1.5 29.201)"><circle cx="19.102" cy="19.102" r="19.102" fill="url(#w)"/><g transform="translate(12.173 7.359)" opacity="0.2"><path d="M183.374,383.74v-1.194a7.087,7.087,0,0,1-3.151-1.213,5.605,5.605,0,0,1-1.938-2.231,1.583,1.583,0,0,1-.2-.763,1.285,1.285,0,0,1,.078-.45,1.422,1.422,0,0,1,.665-.744,1.273,1.273,0,0,1,.626-.2,1.852,1.852,0,0,1,1.311.861,4.307,4.307,0,0,0,3.836,1.977,4.1,4.1,0,0,0,2.349-.685,2.336,2.336,0,0,0,1.1-1.938,1.976,1.976,0,0,0-1.1-1.8,6.51,6.51,0,0,0-1.938-.665l-.372-.1a9.969,9.969,0,0,1-4.345-1.722,4.323,4.323,0,0,1-1.781-3.562,4.872,4.872,0,0,1,1.429-3.445,6.1,6.1,0,0,1,3.425-1.722v-1.076a1.28,1.28,0,0,1,.372-.881,1.165,1.165,0,0,1,.881-.352,1.066,1.066,0,0,1,.822.352,1.227,1.227,0,0,1,.352.881v1.037a5.844,5.844,0,0,1,4.208,2.583,1.107,1.107,0,0,1,.157.548,1.823,1.823,0,0,1-.039.274,1.437,1.437,0,0,1-.391.665,1.339,1.339,0,0,1-.92.352,1.271,1.271,0,0,1-.842-.254,6.505,6.505,0,0,0-1.507-1.057,4.6,4.6,0,0,0-1.879-.352,3.854,3.854,0,0,0-2.231.646,2.092,2.092,0,0,0-.959,1.761,1.866,1.866,0,0,0,1.253,1.742,11.759,11.759,0,0,0,2.9.842,9.967,9.967,0,0,1,3.7,1.644,4.3,4.3,0,0,1,1.664,3.5,5.271,5.271,0,0,1-1.448,3.64,6.421,6.421,0,0,1-3.64,1.879v1.213a1.179,1.179,0,0,1-1.194,1.213A1.216,1.216,0,0,1,183.374,383.74Z" transform="translate(-178.09 -361.84)" fill="#ff791f"/></g></g><g transform="translate(81.958)"><circle cx="24.151" cy="24.151" r="24.151" fill="url(#x)"/><g transform="translate(15.383 9.277)" opacity="0.2"><path d="M227.533,375.613v-1.507a8.944,8.944,0,0,1-3.993-1.546,7.4,7.4,0,0,1-2.466-2.818,2.227,2.227,0,0,1-.235-.959,2.3,2.3,0,0,1,.1-.587,1.915,1.915,0,0,1,1.644-1.174,2.359,2.359,0,0,1,1.664,1.1,5.467,5.467,0,0,0,4.854,2.505,5.258,5.258,0,0,0,2.975-.861,2.959,2.959,0,0,0,1.37-2.466,2.514,2.514,0,0,0-1.39-2.29,8.956,8.956,0,0,0-2.446-.861l-.47-.117a12.6,12.6,0,0,1-5.5-2.192,5.464,5.464,0,0,1-2.251-4.5,6.145,6.145,0,0,1,1.82-4.364,7.834,7.834,0,0,1,4.325-2.192v-1.35a1.481,1.481,0,0,1,.47-1.1,1.46,1.46,0,0,1,1.1-.431,1.432,1.432,0,0,1,1.057.431,1.553,1.553,0,0,1,.431,1.1v1.35a7.4,7.4,0,0,1,5.323,3.268,1.452,1.452,0,0,1,.2.685,3.174,3.174,0,0,1-.039.352,1.916,1.916,0,0,1-.489.842,1.7,1.7,0,0,1-1.174.431,1.721,1.721,0,0,1-1.076-.333,8.309,8.309,0,0,0-1.9-1.331,5.916,5.916,0,0,0-2.388-.431,4.8,4.8,0,0,0-2.818.822,2.622,2.622,0,0,0-1.213,2.231,2.384,2.384,0,0,0,1.585,2.212,16.192,16.192,0,0,0,3.679,1.076,12.474,12.474,0,0,1,4.678,2.075,5.429,5.429,0,0,1,2.094,4.443,6.668,6.668,0,0,1-1.82,4.6,8.053,8.053,0,0,1-4.619,2.388v1.546A1.5,1.5,0,0,1,229.1,377.2,1.613,1.613,0,0,1,227.533,375.613Z" transform="translate(-220.84 -347.9)" fill="#ff791f"/></g></g></g><g transform="translate(138.19 360.924)"><g transform="translate(34.461 0)"><path d="M150.3,281.46a3.619,3.619,0,0,1-2.74-4.286c.509-2.153.489-4.267-2.779-6.556-6.83-4.815-1.918-32.586,11.743-29.435s8.533,21.548,7.261,26.637c-1.253,5.089-6.067,5.323-7.613,6.909a8.456,8.456,0,0,0-1.448,3.836,3.662,3.662,0,0,1-4.423,2.9Z" transform="translate(-141.728 -240.933)" fill="#ffc563"/></g><g transform="translate(35.522 33.814)"><path d="M160.08,260.285l-2.231,6.439s-10.216,4.4-15.579-1.39l.9-7.124Z" transform="translate(-142.27 -258.21)" fill="#f9f8f7"/></g><path d="M159.667,265.88l17.458,21.861,16.127-19.65,7.711,5.676-17.4,23.29a8.209,8.209,0,0,1-8.259,3.464h0a8.006,8.006,0,0,1-4.11-2.075L152.66,281.126Z" transform="translate(-96.803 -217.055)" fill="url(#y)"/><path d="M180.036,300.333l19.924,35.4a10.639,10.639,0,0,1,.215,10.079l-23.447,46.032,4.482,4.267H159.055l23.016-51.767-22.409-31.627-4.423,41.766-16.988,75.389L143.515,438l-19.4-10.96L136.9,348.2s-4.482-46.658,0-54.976C141.362,284.891,180.036,300.333,180.036,300.333Z" transform="translate(-124.12 -193.243)" fill="#555993"/><path d="M154.391,261.152s-7.065-2.172-10.412,1.135c-4.032,3.993-4.736,37.166-4.736,37.166L128.42,323.409s28.731,10.941,47.5,5.93l-4.971-23.9,5.069-14.326c11.782-6.067,6.87-19.767,6.83-20.041-.059-.372-2.525-2.309-4.521-3.816a13.318,13.318,0,0,0-5.441-2.446Z" transform="translate(-120.004 -222.25)" fill="url(#z)"/></g><path d="M154.068,247.221a21.849,21.849,0,0,0-1.664,2.27c-2.7,4.306-4.11,9.277-5.382,14.189-1.761,6.791-3.5,14.17-8.044,19.708-3.836,4.678-9.649,7.789-12.232,13.25-2.368,4.952-1.468,11.117,1.664,15.618a22.139,22.139,0,0,0,13.583,8.572,36.191,36.191,0,0,0,16.3-.724c4.736-1.213,9.394-3.131,13-6.419,5.323-4.854,7.731-11.684,9.9-18.339,5.284-16.283,12.447-40.082-4.521-52.041C169.02,237.925,159.665,240.508,154.068,247.221Z" transform="translate(15.3 119.49)" fill="#555993"/><path d="M173.39,275.031l3.092-4.482s-.45-5.95,0-7.065,2.407-2.368,2.838-2.172c.45.176-.528,3.308-.528,3.308l.646,2.74,4.678-8.709s1.527,4.638,1.468,6.243c-.039,1.585-6.2,14.561-6.2,14.561Z" transform="translate(61.229 136.949)" fill="#ffc563"/><g transform="translate(517.709 392.221)"><path d="M365.526,287.35a24.155,24.155,0,1,1-17.066-29.592A24.152,24.152,0,0,1,365.526,287.35Z" transform="translate(-318.034 -256.924)" fill="#ffd57e"/><g transform="translate(14.092 9.615)" opacity="0.2"><path d="M329.982,288.245l.391-1.448a8.869,8.869,0,0,1-3.445-2.525,7.119,7.119,0,0,1-1.644-3.366,2.14,2.14,0,0,1,.02-1,2.086,2.086,0,0,1,.235-.528,1.8,1.8,0,0,1,1.057-.685,1.685,1.685,0,0,1,.822-.02c.509.137.959.626,1.331,1.487a5.474,5.474,0,0,0,4.032,3.679,5.03,5.03,0,0,0,3.092-.078,2.924,2.924,0,0,0,1.977-2.016,2.494,2.494,0,0,0-.763-2.564,9.046,9.046,0,0,0-2.133-1.448l-.431-.235a12.706,12.706,0,0,1-4.756-3.542,5.457,5.457,0,0,1-1-4.932,6.154,6.154,0,0,1,2.877-3.738,7.831,7.831,0,0,1,4.756-1l.352-1.311a1.551,1.551,0,0,1,.744-.939,1.435,1.435,0,0,1,1.174-.137,1.389,1.389,0,0,1,.9.685,1.64,1.64,0,0,1,.137,1.174l-.352,1.311a7.46,7.46,0,0,1,4.306,4.521,1.512,1.512,0,0,1,.02.724c-.02.078-.078.2-.117.333a2.146,2.146,0,0,1-.685.7,1.847,1.847,0,0,1-2.192-.47A7.837,7.837,0,0,0,339.2,269.1a6.007,6.007,0,0,0-2.192-1.037,4.952,4.952,0,0,0-2.936.059,2.615,2.615,0,0,0-1.742,1.84,2.381,2.381,0,0,0,.939,2.544,14.835,14.835,0,0,0,3.268,1.977,12.364,12.364,0,0,1,3.973,3.229,5.447,5.447,0,0,1,.881,4.834,6.7,6.7,0,0,1-2.955,3.973,8.118,8.118,0,0,1-5.069,1.116l-.391,1.487a1.511,1.511,0,0,1-1.859,1.1A1.671,1.671,0,0,1,329.982,288.245Z" transform="translate(-325.235 -261.837)" fill="#ff791f"/></g></g><g transform="translate(483.329 301.651)"><path d="M322.02,224.45a10.962,10.962,0,1,1-7.75-13.426A10.957,10.957,0,0,1,322.02,224.45Z" transform="translate(-300.468 -210.648)" fill="#ffd57e"/><g transform="translate(6.402 4.375)" opacity="0.2"><path d="M305.894,224.874l.176-.665a4.2,4.2,0,0,1-1.566-1.135,3.092,3.092,0,0,1-.744-1.527.87.87,0,0,1,.02-.45.662.662,0,0,1,.117-.235.745.745,0,0,1,.489-.313.6.6,0,0,1,.372,0c.235.059.431.294.607.665a2.459,2.459,0,0,0,1.84,1.664,2.167,2.167,0,0,0,1.409-.039,1.367,1.367,0,0,0,.9-.92,1.133,1.133,0,0,0-.333-1.155,4.406,4.406,0,0,0-.979-.665l-.2-.117a5.764,5.764,0,0,1-2.153-1.6,2.437,2.437,0,0,1-.45-2.231,2.8,2.8,0,0,1,1.311-1.7,3.5,3.5,0,0,1,2.153-.45l.157-.587a.66.66,0,0,1,.333-.431.619.619,0,0,1,.528-.059.658.658,0,0,1,.411.313.634.634,0,0,1,.059.528l-.157.587a3.37,3.37,0,0,1,1.957,2.055.486.486,0,0,1,0,.333.662.662,0,0,0-.059.157.8.8,0,0,1-.313.313.92.92,0,0,1-.568.059.752.752,0,0,1-.431-.274,3.332,3.332,0,0,0-.685-.8,2.37,2.37,0,0,0-1-.47,2.19,2.19,0,0,0-1.331.02,1.2,1.2,0,0,0-.8.842,1.084,1.084,0,0,0,.431,1.155,7.6,7.6,0,0,0,1.487.9,5.594,5.594,0,0,1,1.8,1.468,2.5,2.5,0,0,1,.391,2.192,3.061,3.061,0,0,1-1.35,1.8,3.68,3.68,0,0,1-2.309.509l-.176.665a.668.668,0,0,1-.842.489A.722.722,0,0,1,305.894,224.874Z" transform="translate(-303.739 -212.883)" fill="#ff791f"/></g></g><g transform="translate(202.611 296.343)"><path d="M203.213,222.192a24.147,24.147,0,1,1-31.921-12.134A24.157,24.157,0,0,1,203.213,222.192Z" transform="translate(-157.036 -207.936)" fill="#ffd57e"/><g transform="translate(13.881 10.636)" opacity="0.2"><path d="M177.754,239.459l-.607-1.37a9.092,9.092,0,0,1-4.267.235,7.322,7.322,0,0,1-3.405-1.566,2.236,2.236,0,0,1-.607-.783,2.17,2.17,0,0,1-.157-.568,1.794,1.794,0,0,1,.391-1.213,1.6,1.6,0,0,1,.626-.548,2.3,2.3,0,0,1,1.957.313,5.456,5.456,0,0,0,5.46.294,5.081,5.081,0,0,0,2.349-2.016,2.959,2.959,0,0,0,.254-2.818,2.517,2.517,0,0,0-2.212-1.507,9.227,9.227,0,0,0-2.583.215l-.489.078a12.67,12.67,0,0,1-5.911.254,5.442,5.442,0,0,1-3.895-3.19,6.253,6.253,0,0,1-.137-4.717,7.806,7.806,0,0,1,3.053-3.777l-.548-1.233a1.49,1.49,0,0,1-.02-1.194,1.4,1.4,0,0,1,.822-.842,1.43,1.43,0,0,1,1.135-.039,1.51,1.51,0,0,1,.842.822l.548,1.233a7.3,7.3,0,0,1,6.185.8,1.41,1.41,0,0,1,.47.548,2.39,2.39,0,0,1,.1.333,1.853,1.853,0,0,1-.1.979,1.794,1.794,0,0,1-.9.881,1.623,1.623,0,0,1-1.116.137,8.153,8.153,0,0,0-2.29-.45,5.535,5.535,0,0,0-2.349.587,4.973,4.973,0,0,0-2.251,1.9,2.642,2.642,0,0,0-.2,2.525,2.385,2.385,0,0,0,2.349,1.37,15.587,15.587,0,0,0,3.8-.528,12.435,12.435,0,0,1,5.108-.02,5.458,5.458,0,0,1,3.738,3.19,6.681,6.681,0,0,1,.215,4.952,8.058,8.058,0,0,1-3.229,4.071l.626,1.409a1.5,1.5,0,0,1-.744,2.016A1.515,1.515,0,0,1,177.754,239.459Z" transform="translate(-164.128 -213.37)" fill="#ff791f"/></g></g><g transform="translate(109.42 157.884)"><g transform="translate(437.501 144.477)"><path d="M338.577,222.244a5.617,5.617,0,1,1,5.617-5.617A5.63,5.63,0,0,1,338.577,222.244Zm0-9.277a3.66,3.66,0,1,0,3.66,3.66A3.667,3.667,0,0,0,338.577,212.967Z" transform="translate(-332.96 -211.01)" fill="#ffdc8a"/></g><g transform="translate(15.912 48.557)"><path d="M123.167,173.234a5.617,5.617,0,1,1,5.617-5.617A5.63,5.63,0,0,1,123.167,173.234Zm0-9.277a3.66,3.66,0,1,0,3.66,3.66A3.667,3.667,0,0,0,123.167,163.957Z" transform="translate(-117.55 -162)" fill="#ffdc8a"/></g><g transform="translate(461.476 279.285)"><path d="M350.827,291.124a5.617,5.617,0,1,1,5.617-5.617A5.63,5.63,0,0,1,350.827,291.124Zm0-9.277a3.66,3.66,0,1,0,3.66,3.66A3.667,3.667,0,0,0,350.827,281.847Z" transform="translate(-345.21 -279.89)" fill="#ffdc8a"/></g><g transform="translate(236.012)"><path d="M235.627,148.424a5.617,5.617,0,1,1,5.617-5.617A5.63,5.63,0,0,1,235.627,148.424Zm0-9.3a3.66,3.66,0,1,0,3.66,3.66A3.667,3.667,0,0,0,235.627,139.128Z" transform="translate(-230.01 -137.19)" fill="#ffdc8a"/></g><g transform="translate(0 393.015)"><path d="M115.037,349.234a5.617,5.617,0,1,1,5.617-5.617A5.63,5.63,0,0,1,115.037,349.234Zm0-9.3a3.66,3.66,0,1,0,3.66,3.66A3.667,3.667,0,0,0,115.037,339.938Z" transform="translate(-109.42 -338)" fill="#ffdc8a"/></g><g transform="translate(32.175 49.594)"><g transform="translate(3.738)"><path d="M128.749,171.963a.969.969,0,0,1-.979-.979v-7.476a.979.979,0,0,1,1.957,0v7.476A.994.994,0,0,1,128.749,171.963Z" transform="translate(-127.77 -162.53)" fill="#ffdc8a"/></g><g transform="translate(0 3.738)"><path d="M134.315,166.4h-7.476a.979.979,0,0,1,0-1.957h7.476a.969.969,0,0,1,.979.979A.981.981,0,0,1,134.315,166.4Z" transform="translate(-125.86 -164.44)" fill="#ffdc8a"/></g></g><g transform="translate(264.763 60.73)"><g transform="translate(3.738)"><path d="M247.589,177.653a.969.969,0,0,1-.979-.979V169.2a.979.979,0,1,1,1.957,0v7.476A.969.969,0,0,1,247.589,177.653Z" transform="translate(-246.61 -168.22)" fill="#ffdc8a"/></g><g transform="translate(0 3.738)"><path d="M253.155,172.087h-7.476a.979.979,0,0,1,0-1.957h7.476a.979.979,0,1,1,0,1.957Z" transform="translate(-244.7 -170.13)" fill="#ffdc8a"/></g></g><g transform="translate(0.9 213.662)"><g transform="translate(3.738)"><path d="M112.769,255.793a.969.969,0,0,1-.979-.979v-7.476a.979.979,0,0,1,1.957,0v7.476A.981.981,0,0,1,112.769,255.793Z" transform="translate(-111.79 -246.36)" fill="#ffdc8a"/></g><g transform="translate(0 3.738)"><path d="M118.335,250.227h-7.476a.979.979,0,0,1,0-1.957h7.476a.979.979,0,0,1,0,1.957Z" transform="translate(-109.88 -248.27)" fill="#ffdc8a"/></g></g></g><g transform="translate(393.852 151.229)"><path d="M271.327,133.79a16.577,16.577,0,0,0-7.887,31.158v3.6a2.1,2.1,0,0,0,2.094,2.094H277.1a2.1,2.1,0,0,0,2.094-2.094v-3.6a16.577,16.577,0,0,0-7.868-31.158Zm4.952,27.929a2.1,2.1,0,0,0-1.253,1.918v2.8h-1.6v-6.243c0-.059-.039-.117-.039-.2a3.035,3.035,0,0,0-.078-.411,1.886,1.886,0,0,0-.137-.352,3.193,3.193,0,0,0-.215-.333,1.391,1.391,0,0,0-.294-.294c-.059-.039-.078-.1-.137-.137l-.528-.352a3.71,3.71,0,0,1-1.624-3.092.979.979,0,1,1,1.957,0,2.094,2.094,0,1,0,4.188,0,5.167,5.167,0,0,0-10.334,0,7.9,7.9,0,0,0,3.073,6.243v5.167h-1.6v-2.8a2.079,2.079,0,0,0-1.253-1.918,12.4,12.4,0,1,1,9.884,0Z" transform="translate(-254.75 -133.79)" fill="#fff1d1"/><path d="M272.861,153.12H261.294a2.094,2.094,0,0,0,0,4.188h11.567a2.094,2.094,0,0,0,0-4.188Z" transform="translate(-250.491 -115.288)" fill="#fff1d1"/><path d="M269.743,155.77h-7.378a2.094,2.094,0,0,0,0,4.188h7.378a2.094,2.094,0,0,0,0-4.188Z" transform="translate(-249.467 -112.752)" fill="#fff1d1"/></g><g transform="translate(142.339 242.863)"><g transform="translate(8.905 8.885)"><path d="M178.427,185.15h-39.26a8.386,8.386,0,0,0-8.377,8.377v16.068a8.386,8.386,0,0,0,8.377,8.377h4.364l5.911,9.727v-9.727h28.985a8.386,8.386,0,0,0,8.377-8.377V193.527A8.386,8.386,0,0,0,178.427,185.15Z" transform="translate(-130.79 -185.15)" fill="#fff1d1"/><g transform="translate(8.103 9.375)"><path d="M146.184,193.972h-9.238a2.016,2.016,0,1,1,0-4.032h9.238a2.016,2.016,0,1,1,0,4.032Z" transform="translate(-134.93 -189.94)" fill="#fffeff"/><g transform="translate(15.148 0.029)"><path d="M144.686,193.957a2.038,2.038,0,0,1-2.016-2.016,1.535,1.535,0,0,1,.039-.411,3.514,3.514,0,0,1,.1-.372,3.164,3.164,0,0,1,.2-.352,3.089,3.089,0,0,1,.235-.294,2.109,2.109,0,0,1,2.857,0l.235.294a1.48,1.48,0,0,1,.176.352,1.181,1.181,0,0,1,.117.372,2.667,2.667,0,0,1,.039.411,2,2,0,0,1-.587,1.409A1.805,1.805,0,0,1,144.686,193.957Z" transform="translate(-142.67 -189.955)" fill="#fffeff"/></g><g transform="translate(21.353)"><path d="M162.28,193.972H147.856a2.016,2.016,0,1,1,0-4.032H162.28a2.013,2.013,0,0,1,2.016,2.016A2.038,2.038,0,0,1,162.28,193.972Z" transform="translate(-145.84 -189.94)" fill="#fffeff"/></g><g transform="translate(0 10.04)"><path d="M162.722,199.1H136.946a2.016,2.016,0,0,1,0-4.032h25.776a2.016,2.016,0,0,1,0,4.032Z" transform="translate(-134.93 -195.07)" fill="#fffeff"/></g><g transform="translate(32.587 10.04)"><path d="M156.786,199.1H153.6a2.016,2.016,0,1,1,0-4.032h3.19a2.016,2.016,0,1,1,0,4.032Z" transform="translate(-151.58 -195.07)" fill="#fffeff"/></g></g></g><path d="M132.425,197.872a11.1,11.1,0,0,1,11.1-11.1h30.023a8.36,8.36,0,0,0-8.044-6.165H134.617a8.386,8.386,0,0,0-8.377,8.377v11.88a8.36,8.36,0,0,0,6.165,8.044V197.872Z" transform="translate(-126.24 -180.61)" fill="#fff1d1"/></g><path d="M365.283,260.149a7.515,7.515,0,0,0,0-15.031,7.982,7.982,0,0,0-1.938.274,9.305,9.305,0,0,0,.137-1.292,9.873,9.873,0,0,0-9.864-9.864,9.346,9.346,0,0,0-1.487.157,13.338,13.338,0,0,0-25.4,5.7c0,.078.02.157.02.254a9.919,9.919,0,0,0-2.407-.333,10.06,10.06,0,1,0,0,20.119h40.944Z" transform="translate(196.081 106.406)" fill="#fff1d1"/></g></svg>