<svg xmlns="http://www.w3.org/2000/svg" xmlns:xlink="http://www.w3.org/1999/xlink" width="489.779" height="260.406" viewBox="0 0 489.779 260.406"><defs><clipPath id="a"><circle cx="98.751" cy="98.751" r="98.751"/></clipPath></defs><g transform="translate(-51.549 -51.682)"><g transform="translate(51.549 51.682)"><circle cx="98.751" cy="98.751" r="98.751" transform="translate(0 37.388)" fill="#cfeffa"/><rect width="2.512" height="64.752" transform="translate(96.426 31.702)" fill="#583c1c"/><path d="M458.24,246.956s23.219-2.362,21.632,2.135,14.791,4.926,22.551,2.773c0,0-1.725,6.9-3.446,16.378s-28.016,3.878-25.86,0-14.766-2.154-14.766-2.154Z" transform="translate(-359.409 -212.531)" fill="#f1592a"/><g transform="translate(0 37.388)"><g clip-path="url(#a)"><path d="M494.6,584.77,438.14,696.881H551.069Z" transform="translate(-345.467 -484.671)" fill="#f0cb6d"/></g><g clip-path="url(#a)"><path d="M678.915,696.881,622.45,584.77V696.881Z" transform="translate(-473.312 -484.671)" fill="#272425" opacity="0.14"/></g><g clip-path="url(#a)"><path d="M455.21,408.5V570.551h68.6Z" transform="translate(-357.308 -362.402)" fill="#f0cb6d"/></g><g clip-path="url(#a)"><path d="M145.825,553.37,89.36,665.481H202.289Z" transform="translate(-103.538 -462.891)" fill="#f0cb6d"/></g><g clip-path="url(#a)"><path d="M330.135,665.481,273.67,553.37V665.481Z" transform="translate(-231.384 -462.891)" fill="#272425" opacity="0.14"/></g><g clip-path="url(#a)"><path d="M298.859,407.07,230.07,569.559h68.973V407.508Z" transform="translate(-201.141 -361.411)" fill="#f0cb6d"/></g><g clip-path="url(#a)"><path d="M455.21,408.5V570.551h68.6Z" transform="translate(-357.308 -362.402)" fill="#272425" opacity="0.14"/></g></g><path d="M870.071,420.484H814.237a5.747,5.747,0,0,1-5.769-5.15,5.665,5.665,0,0,1,5.64-6.179h31.558a9.266,9.266,0,0,0,9.267-9.267h0a9.266,9.266,0,0,0-9.267-9.267H510.478a8.767,8.767,0,0,0-8.768,8.768l23.7,58.986a8.767,8.767,0,0,0,8.768,8.768H782.492a9.409,9.409,0,0,0,2.665-.043h64.065c5.119,0,9.267-3.716,9.267-8.832h0A9.266,9.266,0,0,0,849.223,449H827.389a5.662,5.662,0,0,1,3.664-9.981h39.021a9.266,9.266,0,0,0,9.267-9.267h0A9.272,9.272,0,0,0,870.071,420.484Z" transform="translate(-389.562 -312.612)" fill="#25aae1"/><g transform="translate(178.965 94.318)"><path d="M719.81,486.228V448.705a2.149,2.149,0,0,1,2.175-2.175,2.644,2.644,0,0,1,2.243,1.768v-.067l11.421,31.132c3.808-10.4,7.818-21.074,11.556-31.4v.067a2.121,2.121,0,0,1,2.108-1.5,2.237,2.237,0,0,1,2.175,2.175v37.523a2.237,2.237,0,0,1-2.175,2.175,2.149,2.149,0,0,1-2.175-2.175V460.941c-3.128,8.5-6.185,16.721-9.246,25.219a2.317,2.317,0,0,1-2.175,1.9,2.231,2.231,0,0,1-2.04-1.562v.067c-3.943-10.808-5.573-14.886-9.516-25.765v25.425a2.175,2.175,0,1,1-4.35,0Z" transform="translate(-719.81 -445.712)" fill="#fff"/><path d="M851.565,484.21h1.36V451.99h-1.36a2.149,2.149,0,0,1-2.175-2.175,2.237,2.237,0,0,1,2.175-2.175h7.071a2.339,2.339,0,0,1,2.175,2.175,2.237,2.237,0,0,1-2.175,2.175h-1.36v32.223h1.36a2.237,2.237,0,0,1,2.175,2.175,2.339,2.339,0,0,1-2.175,2.175h-7.071a2.237,2.237,0,0,1-2.175-2.175A2.149,2.149,0,0,1,851.565,484.21Z" transform="translate(-809.692 -446.482)" fill="#fff"/><path d="M921.936,462.617c6.051,2.04,12.371,5.711,12.371,13.118,0,7.138-5.236,11.694-12.168,11.694-7.546,0-12.849-5.165-12.849-12.711a2.237,2.237,0,0,1,2.175-2.175,1.98,1.98,0,0,1,2.108,2.04c0,.273.067.748.067.953a2.881,2.881,0,0,0,.135.953,6.951,6.951,0,0,0,3.468,5.236,8.273,8.273,0,0,0,4.825,1.36c4.556,0,7.886-2.72,7.886-7.34,0-4.9-5.03-7.613-9.381-8.973-5.505-1.835-11.283-4.35-11.283-11.488,0-6.323,5.37-10.943,11.488-10.943A11.373,11.373,0,0,1,932.607,456.1a2.191,2.191,0,0,1-2.175,2.175,1.946,1.946,0,0,1-2.108-1.835l-.067-.067a7.057,7.057,0,0,1-.067-1.222c-.067-.407-.135-1.02-.205-1.222a6.956,6.956,0,0,0-6.933-5.236h-.273a6.831,6.831,0,0,0-7.206,6.593C913.576,459.692,917.994,461.324,921.936,462.617Z" transform="translate(-851.242 -444.193)" fill="#fff"/><path d="M1028.446,462.617c6.051,2.04,12.371,5.711,12.371,13.118,0,7.138-5.236,11.694-12.168,11.694-7.546,0-12.849-5.165-12.849-12.711a2.237,2.237,0,0,1,2.175-2.175,1.98,1.98,0,0,1,2.108,2.04c0,.273.067.748.067.953a2.881,2.881,0,0,0,.135.953,6.951,6.951,0,0,0,3.468,5.236,8.273,8.273,0,0,0,4.825,1.36c4.556,0,7.886-2.72,7.886-7.34,0-4.9-5.03-7.613-9.381-8.973-5.505-1.835-11.283-4.35-11.283-11.488,0-6.323,5.37-10.943,11.489-10.943a11.373,11.373,0,0,1,11.828,11.761,2.191,2.191,0,0,1-2.175,2.175,1.946,1.946,0,0,1-2.108-1.835l-.068-.067a7.057,7.057,0,0,1-.067-1.222c-.067-.407-.135-1.02-.205-1.222a6.956,6.956,0,0,0-6.933-5.236h-.273a6.831,6.831,0,0,0-7.206,6.593C1020.083,459.692,1024.5,461.324,1028.446,462.617Z" transform="translate(-925.121 -444.193)" fill="#fff"/><path d="M1123.6,484.21h1.36V451.99h-1.36a2.149,2.149,0,0,1-2.175-2.175,2.237,2.237,0,0,1,2.175-2.175h7.071a2.339,2.339,0,0,1,2.175,2.175,2.237,2.237,0,0,1-2.175,2.175h-1.36v32.223h1.36a2.237,2.237,0,0,1,2.175,2.175,2.339,2.339,0,0,1-2.175,2.175H1123.6a2.237,2.237,0,0,1-2.175-2.175A2.149,2.149,0,0,1,1123.6,484.21Z" transform="translate(-998.384 -446.482)" fill="#fff"/><path d="M1202.012,445.7c6.118,4.078,8.5,12.916,8.5,19.714s-2.448,15.633-8.5,19.714a10.723,10.723,0,0,1-5.983,1.835,11.119,11.119,0,0,1-6.05-1.835c-6.051-4.078-8.428-12.916-8.428-19.714s2.31-15.633,8.428-19.714a11.119,11.119,0,0,1,6.05-1.835A10.9,10.9,0,0,1,1202.012,445.7Zm-2.448,35.758c4.825-3.128,6.593-10.536,6.593-16.044,0-5.37-2.108-12.711-6.593-16.044a7.5,7.5,0,0,0-3.536-1.155,7.789,7.789,0,0,0-3.6,1.155c-4.485,3.33-6.593,10.673-6.593,16.044,0,5.505,1.835,12.916,6.593,16.044a5.846,5.846,0,0,0,3.6,1.155A5.657,5.657,0,0,0,1199.564,481.453Z" transform="translate(-1040.093 -443.86)" fill="#fff"/><path d="M1323.289,487.644a2.4,2.4,0,0,1-1.9-1.222c-5.236-10.6-9.108-18.286-14.546-29.162v28.347a2.175,2.175,0,0,1-4.35,0V447.876a2.164,2.164,0,0,1,4.078-.953l14.546,29.23V447.805a2.175,2.175,0,0,1,4.35,0v37.66A2.237,2.237,0,0,1,1323.289,487.644Z" transform="translate(-1123.982 -445.088)" fill="#fff"/></g><g transform="translate(337.55 187.347)"><path d="M1238.934,761.024a1.474,1.474,0,0,1-1.042-2.515l10.557-10.557a1.473,1.473,0,0,1,2.083,2.083l-10.557,10.557A1.468,1.468,0,0,1,1238.934,761.024Z" transform="translate(-1237.46 -747.52)" fill="#25aae1"/><path d="M1249.491,761.024a1.469,1.469,0,0,1-1.042-.432l-10.557-10.557a1.473,1.473,0,0,1,2.083-2.083l10.557,10.557a1.474,1.474,0,0,1-1.041,2.515Z" transform="translate(-1237.46 -747.52)" fill="#25aae1"/></g><g transform="translate(201.304 215.314)"><g transform="translate(0.003)"><path d="M794.214,852.314a1.474,1.474,0,0,1-1.042-2.515l10.557-10.557a1.473,1.473,0,0,1,2.083,2.083l-10.557,10.557A1.469,1.469,0,0,1,794.214,852.314Z" transform="translate(-792.74 -838.81)" fill="#25aae1"/></g><path d="M804.761,852.314a1.469,1.469,0,0,1-1.042-.432l-10.557-10.557a1.473,1.473,0,0,1,2.083-2.083L805.8,849.8a1.474,1.474,0,0,1-1.042,2.515Z" transform="translate(-792.73 -838.81)" fill="#25aae1"/></g><g transform="translate(446.227 213.234)"><path d="M1597.209,842.038a5.009,5.009,0,1,1,5.009-5.009A5.015,5.015,0,0,1,1597.209,842.038Zm0-7.956a2.947,2.947,0,1,0,2.947,2.947A2.95,2.95,0,0,0,1597.209,834.082Z" transform="translate(-1592.2 -832.02)" fill="#f1592a"/></g><g transform="translate(274.055 240.809)"><path d="M1037.36,936.349a7.16,7.16,0,1,1,7.159-7.16A7.166,7.166,0,0,1,1037.36,936.349Zm0-11.375a4.215,4.215,0,1,0,4.215,4.215A4.219,4.219,0,0,0,1037.36,924.974Z" transform="translate(-1030.2 -922.03)" fill="#f1592a"/></g><g transform="translate(404.382 179.148)"><path d="M1484.169,723.707h-27.085a1.474,1.474,0,1,1,0-2.947h27.085a1.474,1.474,0,1,1,0,2.947Z" transform="translate(-1455.61 -720.76)" fill="#25aae1"/></g><g transform="translate(297.577 246.495)"><path d="M1133.664,943.537h-25.21a1.474,1.474,0,1,1,0-2.947h25.21a1.474,1.474,0,1,1,0,2.947Z" transform="translate(-1106.98 -940.59)" fill="#25aae1"/></g><g transform="translate(188.235)"><g transform="translate(0.003)"><path d="M751.554,149.494a1.474,1.474,0,0,1-1.042-2.515l10.557-10.557a1.473,1.473,0,0,1,2.083,2.083L752.6,149.062A1.469,1.469,0,0,1,751.554,149.494Z" transform="translate(-750.08 -135.99)" fill="#25aae1"/></g><g transform="translate(0 0)"><path d="M762.1,149.494a1.468,1.468,0,0,1-1.042-.432L750.5,138.505a1.473,1.473,0,0,1,2.083-2.083l10.557,10.557a1.474,1.474,0,0,1-1.042,2.515Z" transform="translate(-750.07 -135.99)" fill="#25aae1"/></g></g><g transform="translate(282.581 33.408)"><path d="M1065.19,259.359a7.16,7.16,0,1,1,7.16-7.16A7.166,7.166,0,0,1,1065.19,259.359Zm0-11.375a4.215,4.215,0,1,0,4.216,4.215A4.219,4.219,0,0,0,1065.19,247.984Z" transform="translate(-1058.03 -245.04)" fill="#f1592a"/></g><g transform="translate(442.542 17.588)"><g transform="translate(0 0)"><path d="M1581.644,206.9a1.474,1.474,0,0,1-1.042-2.515l10.557-10.557a1.473,1.473,0,0,1,2.083,2.083l-10.557,10.557A1.469,1.469,0,0,1,1581.644,206.9Z" transform="translate(-1580.17 -193.4)" fill="#25aae1"/></g><path d="M1592.2,206.9a1.468,1.468,0,0,1-1.042-.432L1580.6,195.915a1.473,1.473,0,0,1,2.083-2.083l10.557,10.557a1.474,1.474,0,0,1-1.042,2.515Z" transform="translate(-1580.17 -193.4)" fill="#25aae1"/></g><g transform="translate(309.467 39.091)"><path d="M1178.166,266.537h-30.9a1.474,1.474,0,1,1,0-2.947h30.9a1.474,1.474,0,0,1,0,2.947Z" transform="translate(-1145.79 -263.59)" fill="#25aae1"/></g><g transform="translate(30.945 246.902)"><g transform="translate(0.003)"><path d="M238.134,955.424a1.474,1.474,0,0,1-1.042-2.515l10.557-10.557a1.473,1.473,0,1,1,2.083,2.083l-10.557,10.557A1.468,1.468,0,0,1,238.134,955.424Z" transform="translate(-236.66 -941.92)" fill="#25aae1"/></g><path d="M248.681,955.424a1.469,1.469,0,0,1-1.042-.432l-10.557-10.557a1.473,1.473,0,1,1,2.083-2.083l10.557,10.557a1.474,1.474,0,0,1-1.042,2.515Z" transform="translate(-236.65 -941.92)" fill="#25aae1"/></g><g transform="translate(24.993 17.181)"><path d="M224.38,206.389a7.16,7.16,0,1,1,7.16-7.16A7.166,7.166,0,0,1,224.38,206.389Zm0-11.375a4.215,4.215,0,1,0,4.215,4.215A4.219,4.219,0,0,0,224.38,195.014Z" transform="translate(-217.22 -192.07)" fill="#f1592a"/></g></g></g></svg>